<svg xmlns="http://www.w3.org/2000/svg" viewBox="0 0 1000 700" fill="none">
  <defs>
    <linearGradient id="fav-charcoal" x1="180" y1="270" x2="465" y2="590" gradientUnits="userSpaceOnUse">
      <stop offset="0%" stop-color="#2D2D2D" />
      <stop offset="100%" stop-color="#121212" />
    </linearGradient>
    <linearGradient id="fav-green" x1="465" y1="590" x2="900" y2="100" gradientUnits="userSpaceOnUse">
      <stop offset="0%" stop-color="#16A34A" />
      <stop offset="60%" stop-color="#22C55E" />
      <stop offset="100%" stop-color="#4ADE80" />
    </linearGradient>
  </defs>
  <path d="M 465 380 C 455 420, 500 590, 570 590 C 640 590, 710 350, 790 210" stroke="url(#fav-green)" stroke-width="105" stroke-linecap="round" stroke-linejoin="round" />
  <path d="M 180 270 C 180 270, 260 590, 330 590 C 400 590, 440 480, 465 380" stroke="url(#fav-charcoal)" stroke-width="105" stroke-linecap="round" stroke-linejoin="round" />
  <polygon points="712,165 850,106 868,255 790,210" fill="url(#fav-green)" />
  <path d="M 880 25 Q 880 60 915 60 Q 880 60 880 95 Q 880 60 845 60 Q 880 60 880 25" fill="#22C55E" />
</svg>
